HIERARCHY
ROOT WRIST
{
	OFFSET 0.000000 0.000000 0.000000
	CHANNELS 6 Xposition Yposition Zposition Yrotation Xrotation Zrotation
	JOINT THUMB_CMC_FE
	{
		OFFSET 0.225143 0.117753 -0.062308
		CHANNELS 3 Yrotation Xrotation Zrotation
		JOINT THUMB_CMC_AA
		{
			OFFSET 0.212856 -0.150507 0.098851
			CHANNELS 3 Yrotation Xrotation Zrotation
			JOINT THUMB_MCP_FE
			{
				OFFSET -0.322503 -0.167445 -0.031436
				CHANNELS 3 Yrotation Xrotation Zrotation
				JOINT THUMB_IP_FE
				{
					OFFSET 0.295233 -0.236404 0.025845
					CHANNELS 3 Yrotation Xrotation Zrotation
					End Site
					{
						OFFSET 0.000000 0.000000 0.000000
					}
				}
			}
		}
	}
	JOINT INDEX_MCP
	{
		OFFSET 1.076913 0.264198 -0.014768
		CHANNELS 3 Yrotation Xrotation Zrotation
		JOINT INDEX_PIP_FE
		{
			OFFSET 0.425053 0.013289 0.013619
			CHANNELS 3 Yrotation Xrotation Zrotation
			JOINT INDEX_DIP_FE
			{
				OFFSET 0.271505 -0.024898 0.000550
				CHANNELS 3 Yrotation Xrotation Zrotation
				End Site
				{
					OFFSET 0.000000 0.000000 0.000000
				}
			}
		}
	}
	JOINT MIDDLE_MCP
	{
		OFFSET 1.072991 0.019362 0.038780
		CHANNELS 3 Yrotation Xrotation Zrotation
		JOINT MIDDLE_PIP_FE
		{
			OFFSET 0.480704 0.002618 0.028696
			CHANNELS 3 Yrotation Xrotation Zrotation
			JOINT MIDDLE_DIP_FE
			{
				OFFSET 0.307486 -0.031129 -0.000643
				CHANNELS 3 Yrotation Xrotation Zrotation
				End Site
				{
					OFFSET 0.000000 0.000000 0.000000
				}
			}
		}
	}
	JOINT RING_MCP
	{
		OFFSET 0.994992 -0.195930 -0.005938
		CHANNELS 3 Yrotation Xrotation Zrotation
		JOINT RING_PIP_FE
		{
			OFFSET 0.436995 0.003792 0.019994
			CHANNELS 3 Yrotation Xrotation Zrotation
			JOINT RING_DIP_FE
			{
				OFFSET 0.295558 -0.038341 -0.006642
				CHANNELS 3 Yrotation Xrotation Zrotation
				End Site
				{
					OFFSET 0.000000 0.000000 0.000000
				}
			}
		}
	}
	JOINT PINKY_MCP
	{
		OFFSET 0.873858 -0.393246 -0.086282
		CHANNELS 3 Yrotation Xrotation Zrotation
		JOINT PINKY_PIP_FE
		{
			OFFSET 0.343972 -0.016492 0.013445
			CHANNELS 3 Yrotation Xrotation Zrotation
			JOINT PINKY_DIP_FE
			{
				OFFSET 0.224713 -0.036309 -0.010265
				CHANNELS 3 Yrotation Xrotation Zrotation
				End Site
				{
					OFFSET 0.000000 0.000000 0.000000
				}
			}
		}
	}
}
MOTION
Frames: 19
Frame Time: 0.008333334
2.013276 2.984792 4.309219 65.831260 -22.207370 7.961333 61.461190 4.834466 70.783240 119.352900 -30.976930 41.161370 -112.864000 -65.843230 -20.609340 4.562099 -8.459839 -36.313870 170.755900 3.442700 -173.146800 -41.978000 -86.125610 -15.825130 -2.052612 1.704992 -29.808040 -160.600100 -2.599731 -170.663300 -39.240540 -88.411440 9.363432 -6.002533 4.395437 -7.086609 -154.452400 -11.041050 -176.723700 -31.479400 -85.617800 32.980160 0.199313 0.562920 -8.662567 176.738200 -12.178040 -167.859500 -48.977420 -83.530580 32.326150 5.539803 0.809173 -11.639740 
2.022353 2.987599 4.309268 66.275860 -22.195470 7.756276 61.461190 4.834463 70.771190 119.352900 -30.976930 41.079170 -112.863900 -65.843200 -20.609410 4.562076 -8.459839 -36.146180 170.864100 3.443326 -173.426200 -41.977780 -86.125670 -15.196530 -2.052643 1.705013 -30.196410 -160.742600 -2.587097 -170.745500 -39.240080 -88.411560 9.496566 -6.002502 4.395452 -7.055664 -154.590500 -11.016690 -176.824800 -31.479520 -85.617830 33.319260 0.199320 0.562923 -9.038147 176.505700 -12.100220 -168.053800 -48.977570 -83.530610 32.784160 5.539821 0.809190 -12.073760 
2.031754 2.988752 4.308769 66.569120 -22.249510 7.734100 61.461190 4.834472 70.829280 119.352900 -30.976930 41.111340 -112.863900 -65.843230 -20.609380 4.562082 -8.459839 -36.176670 171.283500 3.445629 -173.452400 -41.978090 -86.125670 -14.522800 -2.052643 1.704994 -31.054080 -160.422600 -2.615417 -170.700100 -39.240840 -88.411440 10.002280 -6.002502 4.395442 -6.700958 -154.372800 -11.055050 -176.804900 -31.479460 -85.617800 33.627060 0.199296 0.562955 -9.222382 176.520900 -12.105320 -167.826700 -48.977420 -83.530640 32.788440 5.539805 0.809185 -12.276950 
2.042395 2.991985 4.309054 67.080110 -22.236450 7.541929 61.461190 4.834475 70.771970 119.352900 -30.976930 41.022020 -112.863900 -65.843230 -20.609380 4.562078 -8.459869 -35.938810 171.375000 3.446102 -173.567000 -41.978000 -86.125550 -14.135650 -2.052612 1.704995 -31.406490 -160.531300 -2.605804 -170.616200 -39.240080 -88.411440 10.073640 -6.002533 4.395457 -6.377533 -154.772900 -10.984470 -176.633900 -31.479610 -85.617860 33.063980 0.199320 0.562928 -9.738037 176.447600 -12.080750 -167.709700 -48.977540 -83.530640 33.110310 5.539809 0.809170 -12.333440 
2.050558 2.995111 4.307984 67.355320 -22.310760 7.296728 61.461190 4.834468 71.257470 119.352900 -30.976930 41.354460 -112.864000 -65.843260 -20.609340 4.562086 -8.459869 -37.810610 171.657500 3.447531 -174.012500 -41.977940 -86.125670 -13.824950 -2.052612 1.705001 -31.585450 -160.011400 -2.651642 -170.845200 -39.240450 -88.411440 10.757650 -6.002533 4.395440 -6.407349 -154.261600 -11.074580 -176.921900 -31.479310 -85.617740 33.836980 0.199315 0.562910 -9.955719 176.824800 -12.207000 -167.660700 -48.977600 -83.530610 33.195980 5.539838 0.809186 -11.619510 
2.063009 2.999014 4.308728 68.047580 -22.200470 6.964085 61.461190 4.834456 70.985500 119.352900 -30.976930 41.138660 -112.863900 -65.843230 -20.609340 4.562086 -8.459839 -36.910580 171.649300 3.447483 -174.352900 -41.978000 -86.125460 -13.297090 -2.052612 1.704995 -31.872500 -160.043700 -2.648804 -170.852600 -39.240480 -88.411560 11.373480 -6.002502 4.395447 -5.928497 -154.684100 -11.000150 -176.890100 -31.479370 -85.617740 33.904730 0.199303 0.562918 -10.282470 176.465500 -12.086730 -167.502300 -48.977540 -83.530640 32.735630 5.539814 0.809178 -11.354550 
2.072568 3.000884 4.308147 68.433210 -22.077420 6.795699 61.461190 4.834475 71.025360 119.352900 -30.976930 41.225880 -112.863900 -65.843260 -20.609340 4.562088 -8.459839 -36.816800 172.187000 3.449960 -174.557200 -41.977910 -86.125610 -12.294980 -2.052612 1.704994 -32.404880 -159.786400 -2.671448 -170.830700 -39.241150 -88.411440 12.079650 -6.002502 4.395447 -5.832764 -154.566600 -11.020940 -176.873800 -31.479280 -85.617800 34.242610 0.199317 0.562926 -10.688140 176.254000 -12.015690 -167.353900 -48.977600 -83.530670 32.029630 5.539821 0.809174 -10.969210 
2.086623 3.004196 4.308952 69.135280 -22.176540 6.558285 61.461170 4.834478 70.644420 119.352900 -30.976930 40.789720 -112.863900 -65.843200 -20.609380 4.562084 -8.459869 -34.600620 172.139700 3.449756 -174.714200 -41.978060 -86.125670 -11.814330 -2.052612 1.705001 -32.700990 -159.848600 -2.665985 -170.779000 -39.240570 -88.411320 12.931530 -6.002502 4.395460 -5.945465 -155.008000 -10.942690 -176.743700 -31.479640 -85.617830 34.239830 0.199311 0.562936 -11.348300 176.041900 -11.944240 -167.259800 -48.977540 -83.530580 32.237230 5.539805 0.809172 -10.867250 
2.096003 3.006291 4.308367 69.506070 -22.157680 6.388237 61.461170 4.834480 70.795570 119.352900 -30.976900 40.825900 -112.863900 -65.843200 -20.609380 4.562093 -8.459869 -35.364320 172.687200 3.451998 -175.063700 -41.978060 -86.125670 -10.868470 -2.052612 1.704995 -33.047910 -159.807200 -2.669617 -170.882600 -39.240450 -88.411560 13.060760 -6.002502 4.395443 -5.563324 -155.061900 -10.933110 -176.761200 -31.479340 -85.617740 34.613380 0.199301 0.562925 -11.741090 176.024800 -11.938480 -167.257800 -48.977360 -83.530610 32.484470 5.539815 0.809179 -11.015530 
2.106453 3.007729 4.308008 69.909340 -22.156560 6.295795 61.461180 4.834463 70.725220 119.352900 -30.976930 40.730840 -112.864000 -65.843230 -20.609340 4.562097 -8.459839 -35.019620 173.033600 3.453254 -175.195800 -41.978090 -86.125550 -10.074950 -2.052643 1.704999 -33.616460 -159.788300 -2.671265 -170.917300 -39.239990 -88.411440 13.266230 -6.002533 4.395451 -5.293793 -155.388000 -10.874820 -176.644400 -31.479460 -85.617680 34.553820 0.199315 0.562936 -11.710690 175.890300 -11.893010 -167.202600 -48.977290 -83.530610 32.878980 5.539800 0.809192 -11.692080 
2.117523 3.010925 4.307525 70.361130 -22.349520 6.083552 61.461170 4.834475 70.921070 119.352900 -30.976930 40.607440 -112.863900 -65.843230 -20.609380 4.562077 -8.459839 -35.230560 173.257600 3.454000 -175.553600 -41.977750 -86.125550 -9.335144 -2.052643 1.705011 -34.040890 -159.740400 -2.675476 -171.167000 -39.240300 -88.411070 13.787600 -6.002502 4.395446 -5.444153 -155.486900 -10.857060 -176.797700 -31.479220 -85.617740 34.688340 0.199297 0.562925 -11.490880 176.152700 -11.981570 -167.282400 -48.977360 -83.530580 33.263480 5.539795 0.809160 -12.017760 
2.123893 3.012822 4.305430 70.520080 -22.308990 5.930339 61.461190 4.834465 71.483370 119.352900 -30.976930 41.091340 -112.863900 -65.843230 -20.609380 4.562090 -8.459869 -37.884030 173.904600 3.455858 -175.911300 -41.977660 -86.125550 -8.466034 -2.052612 1.704994 -34.820220 -159.445600 -2.701294 -171.354800 -39.240420 -88.411190 14.187270 -6.002502 4.395438 -5.894287 -155.558500 -10.844210 -176.900800 -31.479430 -85.617740 34.561930 0.199313 0.562923 -12.010470 176.361600 -12.051850 -167.374500 -48.977540 -83.530610 33.090770 5.539808 0.809183 -11.991700 
2.139036 3.017114 4.306794 71.365500 -22.357700 5.615935 61.461190 4.834468 70.856670 119.352900 -30.976930 40.374920 -112.863900 -65.843200 -20.609380 4.562085 -8.459839 -34.775940 173.723900 3.455370 -176.202500 -41.977940 -86.125550 -7.590363 -2.052643 1.704999 -35.409180 -160.198500 -2.635193 -171.483600 -39.240600 -88.411560 14.504310 -6.002502 4.395451 -6.690155 -156.509100 -10.671630 -176.748000 -31.479460 -85.617740 34.342440 0.199301 0.562940 -12.372920 176.288500 -12.027310 -167.477500 -48.977330 -83.530640 33.514180 5.539800 0.809171 -11.770900 
2.149545 3.019355 4.306315 71.893770 -22.080870 5.385899 61.461180 4.834475 70.618900 119.352900 -30.976930 40.212450 -112.864000 -65.843230 -20.609310 4.562092 -8.459869 -34.322940 174.296600 3.456763 -176.504300 -41.978060 -86.125670 -6.282288 -2.052612 1.704998 -35.933410 -160.755400 -2.585968 -171.508300 -39.240570 -88.411190 14.189830 -6.002502 4.395449 -6.977325 -157.302700 -10.525210 -176.707300 -31.479490 -85.617800 34.824310 0.199293 0.562931 -13.011720 175.957300 -11.915650 -167.515100 -48.977390 -83.530610 32.984170 5.539807 0.809179 -10.817080 
2.159814 3.022413 4.305266 72.444940 -21.989810 4.998537 61.461190 4.834476 71.105040 119.352900 -30.976930 40.360680 -112.864000 -65.843260 -20.935360 4.562092 -8.459839 -35.333620 174.591400 3.457343 -177.176500 -41.978000 -86.125610 -5.442749 -2.052612 1.704991 -36.733950 -161.610600 -2.509918 -171.949000 -39.240510 -88.411320 13.926560 -6.002502 4.395450 -7.213776 -158.211700 -10.354920 -176.565900 -31.479610 -85.617800 33.313860 0.199335 0.562929 -13.032290 175.857700 -11.882020 -167.938500 -48.977480 -83.530610 32.733560 5.539805 0.809175 -10.172760 
2.166261 3.023993 4.302793 72.711300 -21.942660 4.720596 61.461170 4.834472 72.131270 119.352900 -30.976930 41.072200 -112.863900 -65.843230 -20.993130 4.562107 -8.459839 -39.839290 175.134900 3.458173 -177.838200 -41.977750 -86.125670 -4.758301 -2.052643 1.705009 -37.325590 -162.303800 -2.447845 -172.348600 -39.240420 -88.411440 13.190310 -6.002502 4.395441 -7.870361 -158.522200 -10.296110 -176.744800 -31.479490 -85.617830 33.458230 0.199313 0.562927 -12.350520 176.000300 -11.930210 -168.187300 -48.977390 -83.530550 32.610850 5.539823 0.809171 -9.664459 
2.182645 3.027076 4.303960 73.522590 -21.975160 4.447002 61.461190 4.834465 71.472490 119.352900 -30.976900 40.483920 -112.863900 -65.843230 -20.717590 4.562085 -8.459839 -37.518950 175.510400 3.458554 -178.247800 -41.977780 -86.125670 -3.421478 -2.052643 1.704996 -37.813200 -163.000100 -2.385132 -172.468600 -39.240840 -88.411190 13.345710 -6.002502 4.395427 -8.322266 -159.321300 -10.143310 -176.683000 -31.479370 -85.617740 33.270990 0.199293 0.562927 -12.125340 175.847500 -11.878570 -168.240100 -48.977540 -83.530550 32.832070 5.539792 0.809175 -9.418335 
2.192459 3.028430 4.302835 73.992170 -21.942410 4.306327 61.461170 4.834468 71.517120 119.352900 -30.976930 40.456420 -112.863900 -65.843230 -20.827970 4.562082 -8.459839 -37.199950 176.046600 3.458859 -178.504000 -41.977840 -86.125670 -2.107147 -2.052612 1.704987 -38.614010 -163.223300 -2.364960 -172.434600 -39.240390 -88.411320 13.384540 -6.002533 4.395438 -8.641052 -160.269100 -9.959412 -176.538700 -31.479430 -85.617800 32.265750 0.199302 0.562933 -11.754000 175.543100 -11.775390 -168.281000 -48.977480 -83.530640 32.896690 5.539822 0.809174 -9.529968 
2.203544 3.029479 4.301133 74.517270 -21.992030 4.194249 61.461190 4.834468 71.555130 119.352900 -30.976930 40.398330 -112.863900 -65.843200 -20.627200 4.562075 -8.459869 -37.550840 176.315700 3.458884 -178.732100 -41.977970 -86.125670 -1.174194 -2.052612 1.704993 -39.472780 -163.620100 -2.329010 -172.339800 -39.240450 -88.411320 12.749250 -6.002502 4.395442 -9.366852 -160.723500 -9.870209 -176.424100 -31.479430 -85.617830 31.889350 0.199306 0.562920 -11.116150 175.264700 -11.680730 -168.327100 -48.977390 -83.530550 33.492900 5.539817 0.809168 -10.334930 
